<?xml version="1.0" standalone="no"?>
<!DOCTYPE svg PUBLIC "-//W3C//DTD SVG 1.1//EN" "http://www.w3.org/Graphics/SVG/1.1/DTD/svg11.dtd" >
<!--
2013-9-30: Created.
-->
<svg>
<metadata>
Created by iconfont
</metadata>
<defs>

<font id="iconfont" horiz-adv-x="1024" >
  <font-face
    font-family="iconfont"
    font-weight="500"
    font-stretch="normal"
    units-per-em="1024"
    ascent="896"
    descent="-128"
  />
    <missing-glyph />
    
    <glyph glyph-name="x" unicode="x" horiz-adv-x="1001"
d="M281 543q-27 -1 -53 -1h-83q-18 0 -36.5 -6t-32.5 -18.5t-23 -32t-9 -45.5v-76h912v41q0 16 -0.5 30t-0.5 18q0 13 -5 29t-17 29.5t-31.5 22.5t-49.5 9h-133v-97h-438v97zM955 310v-52q0 -23 0.5 -52t0.5 -58t-10.5 -47.5t-26 -30t-33 -16t-31.5 -4.5q-14 -1 -29.5 -0.5
t-29.5 0.5h-32l-45 128h-439l-44 -128h-29h-34q-20 0 -45 1q-25 0 -41 9.5t-25.5 23t-13.5 29.5t-4 30v167h911zM163 247q-12 0 -21 -8.5t-9 -21.5t9 -21.5t21 -8.5q13 0 22 8.5t9 21.5t-9 21.5t-22 8.5zM316 123q-8 -26 -14 -48q-5 -19 -10.5 -37t-7.5 -25t-3 -15t1 -14.5
t9.5 -10.5t21.5 -4h37h67h81h80h64h36q23 0 34 12t2 38q-5 13 -9.5 30.5t-9.5 34.5q-5 19 -11 39h-368zM336 498v228q0 11 2.5 23t10 21.5t20.5 15.5t34 6h188q31 0 51.5 -14.5t20.5 -52.5v-227h-327z" />
    

    
    <glyph glyph-name="weixin" unicode="&#59224;" d="M640.552 490.222c8.878 0 17.704-0.644 26.414-1.622-23.73 110.5-141.87 192.61-276.72 192.61C239.498 681.21 116 578.448 116 447.954c0-75.322 41.084-137.176 109.734-185.142l-27.424-82.52 95.864 48.09c34.324-6.794 61.854-13.766 96.074-13.766 8.608 0 17.144 0.418 25.614 1.082-5.368 18.328-8.468 37.53-8.468 57.458C407.39 393 510.294 490.222 640.552 490.222zM493.08 564.586c20.664 0 34.324-13.582 34.324-34.22 0-20.56-13.66-34.334-34.324-34.334-20.56 0-41.154 13.774-41.154 34.334C451.926 551.004 472.52 564.586 493.08 564.586zM301.142 496.034c-20.56 0-41.294 13.774-41.294 34.334 0 20.638 20.734 34.22 41.294 34.22 20.56 0 34.254-13.582 34.254-34.22C335.398 509.806 321.702 496.034 301.142 496.034zM890.86 276.46799999999996c0 109.626-109.7 199.022-232.954 199.022-130.502 0-233.266-89.39-233.266-199.022 0-109.836 102.764-199.044 233.266-199.044 27.32 0 54.85 6.9 82.308 13.768L815.416 50l-20.63 68.542C849.844 159.83799999999997 890.86 214.61800000000005 890.86 276.46799999999996zM582.29 310.778c-13.66 0-27.426 13.574-27.426 27.442 0 13.66 13.766 27.434 27.426 27.434 20.734 0 34.324-13.774 34.324-27.434C616.614 324.352 603.024 310.778 582.29 310.778zM733.14 310.778c-13.554 0-27.25 13.574-27.25 27.442 0 13.66 13.696 27.434 27.25 27.434 20.552 0 34.326-13.774 34.326-27.434C767.466 324.352 753.702 310.778 733.14 310.778z"  horiz-adv-x="1024" />

    
    <glyph glyph-name="user" unicode="&#58883;" d="M213.6-112.57600000000002c0.288 0.064 0.448 0.064-0.352 0.064-0.768 0-0.64-0.064-0.32-0.064-0.16-0.064-0.032-0.064 0.32-0.064C213.632-112.63999999999999 213.792-112.63999999999999 213.6-112.57600000000002zM1020-81.47199999999998C1022.368-85.88800000000003 1024-90.65599999999995 1024-96c0-17.664-14.624-32-32.64-32s-32.672 14.336-32.672 32l-0.8 0C913.024 105.27999999999997 730.56 256 512 256 293.408 256 110.88 105.27999999999997 66.08-96L65.248-96c0-17.664-14.656-32-32.64-32S0-113.66399999999999 0-96c0 5.344 1.6 10.112 4 14.528 40.352 179.328 175.168 323.904 351.904 378.08C254.976 351.072 185.792 455.072 185.792 576 185.792 752.736 331.84 896 512 896c180.128 0 326.176-143.264 326.176-320 0-120.928-69.184-224.928-170.08-279.36C844.832 242.43200000000002 979.552 97.88800000000003 1020-81.47199999999998L1020-81.47199999999998zM772.928 576c0 141.376-116.832 256-260.928 256-144.16 0-260.96-114.624-260.96-256s116.832-255.968 260.96-255.968C656.096 320.03200000000004 772.928 434.624 772.928 576L772.928 576z"  horiz-adv-x="1024" />

    
    <glyph glyph-name="noticedark" unicode="&#59223;" d="M510.916 802.909C233.357 802.909 8.091 577.895 8.091 300.084s225.266-502.825 502.825-502.825 502.825 225.014 502.825 502.825S788.476 802.909 510.916 802.909zM561.199 48.671 460.634 48.671 460.634 149.236l100.565 0L561.199 48.671zM561.199 249.801 460.634 249.801 460.634 551.496l100.565 0L561.199 249.801z"  horiz-adv-x="1024" />

    
    <glyph glyph-name="reload" unicode="&#58939;" d="M774.630513 656.439926c-66.918086 71.697949-162.516374 114.716718-267.673365 114.716718-210.315006 0-382.391107-172.0761-382.391107-382.391107s172.0761-382.391107 382.391107-382.391107c176.855964 0 325.031724 124.277468 368.051517 286.792818l-100.377128 0c-38.238906-109.936855-143.396921-191.195553-267.673365-191.195553-157.736511 0-286.792818 129.057331-286.792818 286.792818 0 157.736511 129.057331 286.792818 286.792818 286.792818 81.257675 0 148.176784-33.459043 200.75528-86.037539l-152.956647-152.956647 334.591451 0 0 334.591451L774.630513 656.439926z"  horiz-adv-x="1024" />

    
    <glyph glyph-name="phone" unicode="&#59086;" d="M712.704 844.8L311.296 844.8C264.192 844.8 225.28 805.888 225.28 758.784l0-748.544c0-47.104 38.912-86.016 86.016-86.016l401.408 0c47.104 0 86.016 38.912 86.016 86.016L798.72 758.784C798.72 805.888 759.808 844.8 712.704 844.8L712.704 844.8zM512-19.456000000000017c-31.744 0-57.344 25.6-57.344 57.344 0 31.744 25.6 57.344 57.344 57.344 31.744 0 57.344-25.6 57.344-57.344C569.344 6.1440000000000055 543.744-19.456000000000017 512-19.456000000000017L512-19.456000000000017zM741.376 153.60000000000002L282.624 153.60000000000002 282.624 729.088l458.752 0L741.376 153.60000000000002 741.376 153.60000000000002z"  horiz-adv-x="1024" />

    
    <glyph glyph-name="triangle" unicode="&#58970;" d="M750.331 438.797l-238.576-238.087-238.087 238.576z"  horiz-adv-x="1024" />

    
    <glyph glyph-name="link" unicode="&#58943;" d="M448.000226 160.14619100000004H344.008946c-27.021043 0-53.977062 5.8955-80.11667 17.700951-25.287072 11.415307-49.327854 28.292622-69.517775 48.887136-20.663151 21.078581-36.962475 45.224123-48.442806 71.811673-11.921048 27.595421-17.957434 56.354047-17.957434 85.470305S134.021484 441.89114 145.942533 469.486561c11.480331 26.583938 27.779655 50.751154 48.442806 71.829736 20.189921 20.590902 44.230702 37.544078 69.517774 48.959384 26.139608 11.801838 53.102852 17.812936 80.116671 17.812937h103.991279a31.970084 31.970084 0 0 1 0 63.940169h-104.002117c-36.153289 0-71.963396-7.918466-106.426063-23.480853-32.912931-14.857961-62.813088-35.882356-88.865997-62.462682-26.190182-26.732048-46.875007-57.437779-61.483711-91.250207-15.392602-35.643935-23.199083-72.938754-23.199083-110.833239s7.806481-75.185691 23.199083-110.833238c14.608703-33.830491 35.297141-64.528997 61.483711-91.242983 26.056522-26.580326 55.956679-47.503572 88.865997-62.361533 34.462667-15.558774 70.269162-23.35803 106.426063-23.35803h103.99128a31.970084 31.970084 0 1 1 0 63.940169zM936.770437 494.831432c-14.608703 33.830491-35.293528 64.528997-61.48371 91.242983-26.056522 26.580326-55.956679 47.622782-88.865998 62.495193-34.462667 15.558774-70.272774 23.480853-106.426063 23.480853h-103.994892a31.970084 31.970084 0 0 1 0-63.940169h103.99128c27.021043 0 53.977062-6.011098 80.11667-17.812936 25.287072-11.415307 49.327854-28.350421 69.517775-48.948548 20.663151-21.078581 36.962475-45.253022 48.442806-71.840572 11.921048-27.595421 17.957434-56.354047 17.957434-85.484755s-6.04361-57.889334-17.957434-85.481142c-11.480331-26.583938-27.779655-50.754767-48.442806-71.833348-20.189921-20.590902-44.230702-37.42848-69.517775-48.843787-26.139608-11.801838-53.102852-17.700951-80.11667-17.700951h-103.99128a31.970084 31.970084 0 0 1 0-63.940169h103.99128c36.153289 0 71.963396 7.799256 106.426063 23.35803 32.912931 14.857961 62.813088 35.824557 88.865997 62.404883 26.190182 26.732048 46.875007 57.390817 61.483711 91.221307 15.392602 35.643935 23.199083 72.924305 23.199083 110.818789s-7.802868 75.156792-23.195471 110.804339zM285.924541 384.298026A31.970084 31.970084 0 0 1 317.894625 352.327942h388.337185a31.970084 31.970084 0 0 1 0 63.940169H317.894625a31.970084 31.970084 0 0 1-31.970084-31.970085z"  horiz-adv-x="1024" />

    
    <glyph glyph-name="eye" unicode="&#58894;" d="M515.2 672C208 672 22.4 358.4 22.4 358.4s214.4-304 492.8-304 492.8 304 492.8 304S822.4 672 515.2 672zM832 243.20000000000005c-102.4-86.4-211.2-140.8-320-140.8s-217.6 51.2-320 140.8c-35.2 32-70.4 64-99.2 99.2-6.4 6.4-9.6 12.8-16 19.2 3.2 6.4 9.6 12.8 12.8 19.2 25.6 35.2 57.6 70.4 92.8 102.4 99.2 89.6 208 144 329.6 144s230.4-54.4 329.6-144c35.2-32 64-67.2 92.8-102.4 3.2-6.4 9.6-12.8 12.8-19.2-3.2-6.4-9.6-12.8-16-19.2-28.8-32-60.8-67.2-99.2-99.2zM512 550.4c-96 0-169.6-76.8-169.6-169.6 0-96 76.8-169.6 169.6-169.6 96 0 169.6 76.8 169.6 169.6S604.8 550.4 512 550.4z m0-294.4c-67.2 0-121.6 54.4-121.6 121.6 0 67.2 54.4 121.6 121.6 121.6 67.2 0 121.6-54.4 121.6-121.6 0-64-54.4-121.6-121.6-121.6z"  horiz-adv-x="1024" />

    
    <glyph glyph-name="add1" unicode="&#58956;" d="M481.28 752.64h61.44v-716.8h-61.44zM153.6 424.96h716.8v-61.44H153.6z"  horiz-adv-x="1024" />

    
    <glyph glyph-name="lock" unicode="&#58953;" d="M819 473h-42v90.5c0 22.5-2.9 44.6-8.2 65.8-0.4 3-1.3 6.3-2.4 9.5-8.7 29.7-22.6 57.7-41.2 82.8-0.2 0.3-0.4 0.5-0.6 0.8-1 1.4-2.1 2.8-3.2 4.2-0.6 0.8-1.2 1.6-1.9 2.4-0.4 0.5-0.9 1.1-1.3 1.6-6 7.4-12.4 14.6-19.2 21.4-50.3 50.3-116.7 78-187.9 78h-0.6c-71.2 0-137.6-27.7-188-78.1-50.3-50.3-77.5-117.2-77.5-188.4V473h-43c-39.8 0-71-32.2-71-72v-390c0-39.8 31.3-72 71-72h617c39.8 0 73 32.2 73 72V401c0 39.8-33.2 72-73 72zM559 187.5v-59c0-2.7 0.3-5.5 0.3-8.4 0-26.5-21.7-48-48.2-48-26.5 0-48.2 21.5-48.2 48h0.2v68.6c-19 14.6-31.7 37.6-31.7 63.4 0 44.2 35.6 80 79.8 80s80.4-35.8 80.4-80c-0.2-26.6-12.6-50.1-32.6-64.6zM317 473v90.5C317 669.1 400.8 755 505.8 758c1.6 0 3.3 0.1 4.9 0.1 1.6 0 3.3-0.1 4.9-0.1C620.5 755 705 669.1 705 563.5V473H317z"  horiz-adv-x="1024" />

    
    <glyph glyph-name="right1" unicode="&#58880;" d="M730.896875 366.30937500000005c0.45 0.871875 1.18125 1.603125 1.575 2.503125 7.734375 16.0875 5.203125 35.775-8.49375 48.7125L413.50625 711.178125c-16.93125 16.003125-43.621875 15.24375-59.653125-1.659375-16.003125-16.93125-15.271875-43.621875 1.659375-59.653125l278.578125-263.53125L356.609375 118.89374999999995c-16.7625-16.171875-17.26875-42.8625-1.096875-59.653125 8.26875-8.60625 19.321875-12.909375 30.375-12.909375 10.546875 0 21.09375 3.9375 29.278125 11.8125l307.659375 296.521875c0.590625 0.590625 0.815625 1.40625 1.40625 2.025 0.45 0.421875 0.928125 0.73125 1.378125 1.18125 2.390625 2.503125 3.65625 5.56875 5.2875 8.4375z"  horiz-adv-x="1024" />

    
    <glyph glyph-name="menu" unicode="&#58892;" d="M934.368 716.816H89.632A38.4 38.4 0 0 0 89.616 793.6h844.752a38.4 38.4 0 1 0 0-76.784z m0-384.016H89.632a38.368 38.368 0 1 0 0 76.784h844.752a38.368 38.368 0 1 0-0.016-76.784z m0-383.984H89.632a38.4 38.4 0 1 0 0 76.768h844.752a38.4 38.4 0 0 0-0.016-76.768z"  horiz-adv-x="1024" />

    
    <glyph glyph-name="search" unicode="&#58893;" d="M489.728 50.111999999999966c-208.976 0-378.432 169.408-378.432 378.4 0 209.04 169.456 378.448 378.432 378.448 209.008 0 378.464-169.408 378.464-378.448 0.016-208.992-169.456-378.4-378.464-378.4z m0 690.224c-172.192 0-311.808-139.616-311.808-311.824 0-172.176 139.616-311.76 311.808-311.76 172.24 0 311.792 139.584 311.792 311.76 0.016 172.192-139.552 311.824-311.792 311.824z m412.08-723.888a35.616 35.616 0 0 0-50.288 0l-129.008 129.008a35.568 35.568 0 0 0 50.272 50.288l129.024-129.008a35.616 35.616 0 0 0 0-50.288z"  horiz-adv-x="1024" />

    
    <glyph glyph-name="ewm" unicode="&#58895;" d="M393.952 711.984H141.984a41.984 41.984 0 0 0-42 42.032 41.984 41.984 0 0 0 42 42h251.984a42.016 42.016 0 0 0-0.016-84.032z m504.096-377.984H141.984a42.016 42.016 0 0 0 0 84h756.064a42 42 0 1 0 0-84zM393.952-44H141.984a42.016 42.016 0 1 0 0 84.032h251.984a42.032 42.032 0 1 0-0.016-84.032z m489.584 755.984H631.52a41.968 41.968 0 0 0-41.952 42.032 41.968 41.968 0 0 0 41.952 42h252.016a42.032 42.032 0 1 0 0-84.032z m0-755.984H631.52a41.952 41.952 0 0 0-41.952 41.952 42 42 0 0 0 41.952 42.08h252.016a42.016 42.016 0 0 0 0-84.032z"  horiz-adv-x="1024" />

    
    <glyph glyph-name="edit" unicode="&#58896;" d="M738.832-31.824H509.04c-16.064 0-29.104 14.288-29.104 31.952 0 17.68 13.04 32 29.104 32h229.792c16.096 0 29.12-14.32 29.12-32s-13.024-31.952-29.12-31.952z m20.24 703.008L727.04 615.52l-166.608 96.448 32.064 55.712a63.968 63.968 0 0 0 87.568 23.504l55.52-32.128a64.384 64.384 0 0 0 23.488-87.872zM390.368 30.752L223.84 127.2l304.496 529.12 166.592-96.496-304.56-529.072z m-147.392-63.168L223.84 127.2l166.544-96.448-147.408-63.168z"  horiz-adv-x="1024" />

    
    <glyph glyph-name="delete" unicode="&#58897;" d="M799.952 736.016H224.016a32 32 0 1 0 0 63.984h575.936a32 32 0 0 0 0-63.984z m0-608.016a158.08 158.08 0 0 0-3.152-31.952h3.152V64c0-53.008-42.912-96-95.904-96H319.968a95.984 95.984 0 0 0-95.952 96v32.048h3.2a159.36 159.36 0 0 0-3.2 31.952V672.032h575.936V128zM384.016 544a32.016 32.016 0 0 1-64.032 0v-447.952a32.032 32.032 0 0 1 64.032 0V544z m160.016 0a32.016 32.016 0 0 1-64.048 0v-447.952a32.032 32.032 0 0 1 64.048 0V544z m160.016 0a32.032 32.032 0 0 1-64.08 0v-447.952a32.048 32.048 0 0 1 64.08 0V544z"  horiz-adv-x="1024" />

    
    <glyph glyph-name="card" unicode="&#58898;" d="M856.608 62.544H162.064a46.288 46.288 0 0 0-46.288 46.288V525.584H902.88v-416.752a46.24 46.24 0 0 0-46.272-46.288zM382 409.824h-138.928a34.72 34.72 0 0 1-34.704-34.752 34.72 34.72 0 0 1 34.704-34.736h138.928a34.752 34.752 0 0 1 0 69.488z m92.608-162.064h-231.52a34.72 34.72 0 0 1-34.704-34.72 34.72 34.72 0 0 1 34.704-34.752h231.52a34.752 34.752 0 0 1 0 69.472zM115.776 664.512a46.256 46.256 0 0 0 46.288 46.272h694.544a46.256 46.256 0 0 0 46.288-46.272v-92.656H115.776v92.656z"  horiz-adv-x="1024" />

    
    <glyph glyph-name="users" unicode="&#58899;" d="M861.328 139.12H842.88c-14.624 109.424-82.208 201.968-176.112 251.216a199.52 199.52 0 0 1 45.568 127.216c0 40.72-12.224 78.56-33.088 110.176 3.648 0.352 7.168 1.152 10.864 1.152 66.208 0 119.824-54.832 119.824-122.448a122.352 122.352 0 0 0-69.808-110.944c77.856-18.32 139.968-78.32 162.784-155.808 6.112-8.592 9.792-19.136 9.792-30.592v-17.504c-0.016-28.944-23.04-52.464-51.376-52.464z m-284.32 237.216c101.232-23.296 181.968-99.664 211.664-198.256 7.92-10.992 12.752-24.384 12.752-38.976v-22.256a66.752 66.752 0 0 0-66.768-66.768h-445.28a66.736 66.736 0 0 0-66.768 66.768v22.256c0 14.576 4.8 27.984 12.736 38.976 29.712 98.592 110.416 174.96 211.648 198.256-53.488 24.704-90.816 78.448-90.816 141.216 0 86.048 69.776 155.824 155.824 155.824 86.032 0 155.808-69.776 155.808-155.824 0-62.752-37.344-116.512-90.8-141.216z m-219.744 14c-93.936-49.248-161.536-141.792-176.112-251.216h-18.48c-28.352 0-51.376 23.52-51.376 52.464v17.504c0 11.456 3.696 22 9.808 30.592 22.848 77.488 84.96 137.488 162.784 155.808a122.384 122.384 0 0 0-69.84 110.944c0 67.632 53.664 122.448 119.872 122.448 3.68 0 7.2-0.784 10.832-1.152a199.248 199.248 0 0 1-33.104-110.176 199.52 199.52 0 0 1 45.616-127.216z"  horiz-adv-x="1024" />

    
    <glyph glyph-name="tickte" unicode="&#58900;" d="M859.6 116.624H217.888a53.472 53.472 0 0 0-53.456 53.456V308.72a79.184 79.184 0 0 1 26.736-4.912 80.224 80.224 0 1 1 0 160.416c-9.44 0-18.368-1.952-26.736-4.912V597.92a53.472 53.472 0 0 0 53.456 53.456h641.712a53.44 53.44 0 0 0 53.424-53.456V459.296a79.712 79.712 0 0 1-26.704 4.912A80.192 80.192 0 0 1 806.144 384a80.192 80.192 0 0 1 80.176-80.208c9.424 0 18.336 1.92 26.704 4.912v-138.64a53.472 53.472 0 0 0-53.424-53.44zM752.624 384a133.664 133.664 0 0 0 106.976 130.976v56.176c0 14.784-11.984 26.768-26.768 26.768H672.4v-106.96h-53.456V597.92H458.544v-106.96h-53.504V597.92H244.624c-14.768 0-26.736-11.984-26.736-26.768v-56.176c61.008-12.384 106.96-66.288 106.96-130.976 0-64.672-45.952-118.592-106.96-130.976v-56.192c0-14.784 11.984-26.768 26.736-26.768h160.416v80.256h53.504v-80.256h160.416v80.256h53.456v-80.256H832.848c14.784 0 26.768 11.984 26.768 26.768v56.192A133.68 133.68 0 0 0 752.624 384z m-133.664 53.456h53.456v-133.664h-53.456v133.664z m-213.92 0h53.504v-133.664h-53.504v133.664z"  horiz-adv-x="1024" />

    
    <glyph glyph-name="list-mana" unicode="&#58901;" d="M819.184 349.872H307.168v68.24h512.016a34.112 34.112 0 1 0 0-68.24z m0 307.184H307.168v68.304h512.016a34.144 34.144 0 0 0 0-68.304zM170.688 76.768l-0.048 0.048h0.048v34.112H238.928v-68.224h-68.256v34.064h0.016z m0 307.152c0 0.08-0.048 0.08-0.048 0.08s0.048 0 0.048 0.048v34.064H238.928v-68.24h-68.256v34.048h0.016z m0 307.264h-0.048l0.048 0.048v34.08h34.128v0.048h34.112v-68.304h-68.256v34.128h0.016z m682.608-614.368a34.08 34.08 0 0 0-34.112-34.112H307.168v68.224h512.016a34.08 34.08 0 0 0 34.112-34.112z"  horiz-adv-x="1024" />

    


  </font>
</defs>
</svg>
