<?xml version="1.0" standalone="no"?><!DOCTYPE svg PUBLIC "-//W3C//DTD SVG 1.1//EN" "http://www.w3.org/Graphics/SVG/1.1/DTD/svg11.dtd">
<svg t="1525856434846" class="icon" style="" viewBox="0 0 64 64" version="1.1" xmlns="http://www.w3.org/2000/svg" p-id="2721" data-spm-anchor-id="a313x.7781069.0.i0" xmlns:xlink="http://www.w3.org/1999/xlink" width="64" height="64"><defs><style type="text/css"></style></defs><path id="SVGID_1_" d="M32.304,7.422L6.768,27.903c-0.934,0.528-2.127,0.214-2.666-0.704c-0.539-0.918-0.219-2.093,0.713-2.622
        L30.352,4.096c0.934-0.529,2.126-0.215,2.666,0.704S33.236,6.891,32.304,7.422L32.304,7.422z M59.897,27.199
        c-0.539,0.918-1.731,1.232-2.665,0.704L31.696,7.422c-0.932-0.531-1.252-1.704-0.713-2.622
        c0.538-0.918,1.731-1.232,2.664-0.704l25.537,20.481C60.116,25.106,60.437,26.281,59.897,27.199L59.897,27.199z"></path><path id="SVGID_3_" d="M51.201,32.151c0-1.062,0.858-1.921,1.918-1.921c1.063,0,1.921,0.859,1.921,1.921
        c0,7.723,0,21.607,0,21.607c0,3.535-2.865,6.401-6.4,6.401H44.8c-3.535,0-6.401-2.866-6.401-6.401c0,0,0-0.98,0-2.56v-2.56
        c0-2.12-1.717-3.84-3.839-3.84H32h-2.561c-2.121,0-3.841,1.72-3.841,3.84v2.56c0,1.579,0,2.56,0,2.56
        c0,3.535-2.864,6.401-6.398,6.401h-3.841c-3.534,0-6.399-2.866-6.399-6.401c0,0,0-13.885,0-21.607
        c0-1.062,0.859-1.921,1.92-1.921c1.059,0,1.918,0.859,1.918,1.921v21.607c0,1.412,1.149,2.562,2.561,2.562H19.2
        c1.411,0,2.561-1.149,2.561-2.562v-2.56v-2.56c0-4.236,3.445-7.681,7.679-7.681H32h2.56c4.235,0,7.681,3.444,7.681,7.681v2.56
        v2.56c0,1.412,1.148,2.562,2.56,2.562h3.84c1.413,0,2.562-1.149,2.562-2.562V32.151"></path></svg>