<?xml version="1.0" standalone="no"?><!DOCTYPE svg PUBLIC "-//W3C//DTD SVG 1.1//EN" "http://www.w3.org/Graphics/SVG/1.1/DTD/svg11.dtd">
<svg t="1525856434846" class="icon" style="" viewBox="0 0 64 64" version="1.1" xmlns="http://www.w3.org/2000/svg" p-id="2721" data-spm-anchor-id="a313x.7781069.0.i0" xmlns:xlink="http://www.w3.org/1999/xlink" width="64" height="64"><defs><style type="text/css"></style></defs><path id="SVGID_1_" d="M33.497,55.652c1.153,0,2.087,0.935,2.087,2.085c0,1.154-0.934,2.089-2.087,2.089
            c-10.212,0-20.975,0-20.975,0c-4.611,0-8.348-3.738-8.348-8.348V12.522c0-4.611,3.737-8.348,8.348-8.348h38.956
            c4.609,0,8.348,3.737,8.348,8.348v38.956c0,4.609-3.738,8.348-8.348,8.348c0,0-3.535,0-8.475,0
            c-1.153,0-2.087-0.935-2.087-2.089c0-1.15,0.934-2.085,2.087-2.085h8.475c2.3,0,4.174-1.874,4.174-4.174V12.522
            c0-2.304-1.874-4.175-4.174-4.175H12.522c-2.301,0-4.175,1.872-4.175,4.175v38.956c0,2.3,1.875,4.174,4.175,4.174H33.497"></path><path id="SVGID_3_" d="M31.304,45.914H17.392c-1.154,0-2.088-0.936-2.088-2.088c0-1.151,0.934-2.087,2.088-2.087h13.912
            c1.152,0,2.088,0.936,2.088,2.087C33.392,44.979,32.456,45.914,31.304,45.914L31.304,45.914L31.304,45.914z M46.608,34.781
            H17.392c-1.154,0-2.088-0.934-2.088-2.084c0-1.154,0.934-2.088,2.088-2.088h29.216c1.154,0,2.087,0.934,2.087,2.088
            C48.695,33.848,47.763,34.781,46.608,34.781L46.608,34.781L46.608,34.781z M46.608,23.652H17.392
            c-1.154,0-2.088-0.934-2.088-2.088c0-1.151,0.934-2.085,2.088-2.085h29.216c1.154,0,2.087,0.934,2.087,2.085
            C48.695,22.718,47.763,23.652,46.608,23.652L46.608,23.652L46.608,23.652z"></path></svg>