<?xml version="1.0" standalone="no"?><!DOCTYPE svg PUBLIC "-//W3C//DTD SVG 1.1//EN" "http://www.w3.org/Graphics/SVG/1.1/DTD/svg11.dtd">
<svg t="1525856434846" class="icon" style="" viewBox="0 0 64 64" version="1.1" xmlns="http://www.w3.org/2000/svg" p-id="2721" data-spm-anchor-id="a313x.7781069.0.i0" xmlns:xlink="http://www.w3.org/1999/xlink" width="64" height="64"><defs><style type="text/css"></style></defs><path id="SVGID_1_" d="M36.664,49.195c1.104-0.334,2.27,0.29,2.604,1.395c0.332,1.102-0.291,2.268-1.393,2.601
        c-2.302,0.695-4.74,1.072-7.266,1.072c-13.832,0-25.043-11.215-25.043-25.044c0-13.833,11.212-25.043,25.043-25.043
        c13.83,0,25.043,11.211,25.043,25.043c0,6.866-2.764,13.086-7.239,17.611c-0.812,0.819-2.131,0.824-2.95,0.016
        c-0.819-0.811-0.828-2.132-0.018-2.952c3.891-3.931,6.033-9.143,6.033-14.674c0-11.51-9.361-20.871-20.87-20.871
        c-11.507,0-20.871,9.361-20.871,20.871c0,11.507,9.364,20.869,20.871,20.869C32.673,50.087,34.711,49.787,36.664,49.195"></path><path id="SVGID_3_" d="M58.868,59.848c-0.595,0-1.188-0.227-1.644-0.682l-10.652-10.69c-0.909-0.91-0.909-2.383,0-3.292
        c0.452-0.455,1.047-0.685,1.643-0.685c0.594,0,1.188,0.229,1.642,0.685l10.654,10.688c0.906,0.909,0.906,2.385,0,3.295
        C60.056,59.621,59.463,59.848,58.868,59.848L58.868,59.848L58.868,59.848z"></path></svg>