<?xml version="1.0" standalone="no"?><!DOCTYPE svg PUBLIC "-//W3C//DTD SVG 1.1//EN" "http://www.w3.org/Graphics/SVG/1.1/DTD/svg11.dtd">
<svg t="1525856434846" class="icon" style="" viewBox="0 0 64 64" version="1.1" xmlns="http://www.w3.org/2000/svg" p-id="2721" data-spm-anchor-id="a313x.7781069.0.i0" xmlns:xlink="http://www.w3.org/1999/xlink" width="64" height="64"><defs><style type="text/css"></style></defs><path id="SVGID_1_" d="M49.921,58.369c0,1.063-0.861,1.921-1.921,1.921c-1.062,0-1.92-0.858-1.92-1.921
            c0-4.082,0-37.889,0-37.889c0-1.294,0.213-2.328,0.656-3.117l3.348,1.878c-0.003,0.004-0.163,0.304-0.163,1.238V58.369
             M49.963,19.363l-1.879-3.348c0.788-0.444,1.821-0.656,3.117-0.656h3.839c1.294,0,2.327,0.212,3.116,0.656l-1.879,3.348
            c-0.004-0.002-0.304-0.163-1.237-0.163h-3.839C50.267,19.2,49.966,19.361,49.963,19.363 M56.155,19.242l3.349-1.878
            c0.443,0.789,0.656,1.823,0.656,3.117c0,0,0,33.711,0,37.699c0,1.059-0.86,1.92-1.92,1.92c-1.061,0-1.92-0.861-1.92-1.92V20.48
            C56.32,19.545,56.156,19.246,56.155,19.242 M49.963,19.363l-0.155-0.276l0.276,0.155
            C50.062,19.279,50.003,19.341,49.963,19.363L49.963,19.363L49.963,19.363z M49.808,19.087l-3.071-1.724
            c0.323-0.578,0.769-1.024,1.348-1.348L49.808,19.087L49.808,19.087L49.808,19.087z M56.277,19.363
            c-0.039-0.022-0.102-0.084-0.122-0.122l0.277-0.155L56.277,19.363L56.277,19.363L56.277,19.363z M56.433,19.087l1.724-3.071
            c0.576,0.324,1.023,0.77,1.348,1.348L56.433,19.087L56.433,19.087L56.433,19.087z"></path><path id="SVGID_3_" d="M29.439,58.369c0,1.063-0.859,1.921-1.92,1.921c-1.06,0-1.921-0.858-1.921-1.921
            c0-4.082,0-26.369,0-26.369c0-1.294,0.213-2.328,0.656-3.117l3.35,1.878c-0.002,0.004-0.165,0.304-0.165,1.239V58.369
             M29.483,30.885l-1.88-3.35c0.79-0.443,1.823-0.656,3.118-0.656h3.839c1.296,0,2.327,0.212,3.115,0.656l-1.879,3.35
            c-0.001-0.002-0.301-0.165-1.236-0.165H30.72C29.786,30.72,29.485,30.882,29.483,30.885 M35.675,30.761l3.351-1.878
            c0.44,0.789,0.653,1.822,0.653,3.117c0,0,0,22.191,0,26.179c0,1.059-0.858,1.92-1.917,1.92c-1.063,0-1.922-0.861-1.922-1.92V32
            C35.84,31.065,35.678,30.766,35.675,30.761 M29.483,30.885l-0.157-0.278l0.278,0.155
            C29.583,30.801,29.521,30.863,29.483,30.885L29.483,30.885L29.483,30.885z M29.326,30.606l-3.071-1.723
            c0.324-0.577,0.771-1.024,1.348-1.348L29.326,30.606L29.326,30.606L29.326,30.606z M35.796,30.885
            c-0.037-0.021-0.099-0.083-0.121-0.124l0.279-0.155L35.796,30.885L35.796,30.885L35.796,30.885z M35.954,30.606l1.721-3.071
            c0.579,0.324,1.026,0.771,1.351,1.348L35.954,30.606L35.954,30.606L35.954,30.606z"></path><path id="SVGID_5_" d="M8.96,58.369c0,1.063-0.86,1.921-1.92,1.921c-1.062,0-1.92-0.858-1.92-1.921c0-4.082,0-49.41,0-49.41
            c0-1.294,0.212-2.327,0.655-3.115l3.348,1.878c0,0.002-0.163,0.305-0.163,1.237V58.369 M9.002,7.843L7.124,4.496
            c0.79-0.443,1.823-0.656,3.117-0.656h3.839c1.293,0,2.327,0.213,3.117,0.656l-1.879,3.348C15.314,7.841,15.014,7.68,14.08,7.68
            h-3.839C9.306,7.68,9.006,7.841,9.002,7.843 M15.196,7.722l3.348-1.878C18.987,6.632,19.2,7.665,19.2,8.959
            c0,0,0,45.232,0,49.22c0,1.059-0.859,1.92-1.92,1.92c-1.06,0-1.92-0.861-1.92-1.92V8.959
            C15.359,8.026,15.196,7.724,15.196,7.722 M9.002,7.843L8.848,7.567l0.276,0.155C9.102,7.76,9.042,7.821,9.002,7.843
            L9.002,7.843L9.002,7.843z M8.848,7.567L5.775,5.844C6.1,5.265,6.547,4.82,7.124,4.496L8.848,7.567L8.848,7.567L8.848,7.567z
             M15.317,7.843c-0.039-0.022-0.101-0.083-0.121-0.122l0.276-0.155L15.317,7.843L15.317,7.843L15.317,7.843z M15.473,7.567
            l1.724-3.071c0.576,0.324,1.024,0.77,1.348,1.348L15.473,7.567L15.473,7.567L15.473,7.567z"></path></svg>